<svg width="24" height="24" viewBox="0 0 24 24" fill="none" xmlns="http://www.w3.org/2000/svg">
<path d="M18.7103 3.68478C16.0184 0.526965 7.3069 6.64316 7.3775 14.5276C7.37685 14.5758 7.36676 14.6229 7.34789 14.6672C7.32927 14.7112 7.30232 14.7512 7.26851 14.785C7.23477 14.8191 7.19464 14.8461 7.15041 14.8647C7.10648 14.8836 7.05931 14.8936 7.01148 14.8943C6.9796 14.894 6.94837 14.8897 6.91778 14.8813C6.8872 14.8731 6.85792 14.8608 6.83059 14.8452C6.80326 14.8295 6.77788 14.8103 6.75511 14.7882C6.73266 14.7661 6.71281 14.7414 6.69655 14.7144C6.47531 14.2319 6.29962 13.7299 6.17241 13.2145C6.0452 12.6992 5.96679 12.1731 5.93849 11.6431C5.90986 11.1131 5.93133 10.5815 6.00258 10.0554C6.07351 9.52964 6.19421 9.01136 6.36242 8.50805C6.38779 8.43355 6.38649 8.35254 6.35851 8.27868C6.33092 8.20489 6.27855 8.14298 6.21037 8.10352C6.14219 8.06405 6.06242 8.04949 5.98469 8.06233C5.90726 8.07534 5.83633 8.11438 5.78427 8.17359C5.42542 8.55653 5.10332 8.97265 4.82222 9.4161C4.54112 9.85954 4.30264 10.3284 4.10939 10.8167C3.91646 11.305 3.76974 11.8103 3.67115 12.326C3.57284 12.8418 3.52317 13.3658 3.52279 13.8909C3.5101 15.0052 3.71962 16.1108 4.13965 17.1428C4.55952 18.1744 5.18128 19.1117 5.96842 19.8998C6.75536 20.6875 7.69184 21.3101 8.72281 21.7308C9.75355 22.1512 10.858 22.361 11.9711 22.348C23.856 22.0779 21.113 6.50164 18.7103 3.68478Z" fill="#0A0C00"/>
</svg>
